# xmcd
#
# Track frame offsets:
#	182
#	13200
#	20600
#	32990
#	42830
#	56522
#	67512
#	78235
#	92432
#	105995
#	116415
#	130487
#	142077
#	155267
#	166885
#	177630
#	189305
#	201082
#
# Disc length: 2844 seconds
#
# Revision: 1
# Processed by: cddbd v1.5.2PL0 Copyright (c) Steve Scherf et al.
# Submitted via: audiograbber 1.83.01
#
DISCID=e70b1a12
DTITLE=Verschiedene - Country Gospel - CD 02
DYEAR=1900
DGENRE=Country
TTITLE0=George Jones - The Unclouded Day
TTITLE1=Jim Reeves - Old Time Religion
TTITLE2=George Jones - Take The World But Give Me Jesus
TTITLE3=George Jones - Boat Of Live
TTITLE4=Roy Acuff - When I Lay My Burden Down
TTITLE5=George Jones - The Good Old Bible
TTITLE6=Sons Of The Pioneers - Somebody Bigger That You And I
TTITLE7=George Jones - Will There Be Stars Im My Crown
TTITLE8=Carl Perkins - Halleluya Special
TTITLE9=George Jones - If You Believe
TTITLE10=Faron Young - Chapel In The Moonlight
TTITLE11=George Jones - How Beautiful Heaven Must Be
TTITLE12=Roy Acuff - Driftin' Too Far From The Shore
TTITLE13=George Jones - Leaning On The Everlasting Arm
TTITLE14=Jim Reeves - An Evening Prayer
TTITLE15=George Jones - Lord You've Been Mighty Good To Me
TTITLE16=Patsy Cline - Dear God
TTITLE17=George Jones - I'll Fly Away
EXTD=
EXTT0=
EXTT1=
EXTT2=
EXTT3=
EXTT4=
EXTT5=
EXTT6=
EXTT7=
EXTT8=
EXTT9=
EXTT10=
EXTT11=
EXTT12=
EXTT13=
EXTT14=
EXTT15=
EXTT16=
EXTT17=
PLAYORDER=
